<?xml version="1.0" encoding="UTF-8"?>
<svg id="Camada_1" data-name="Camada 1" xmlns="http://www.w3.org/2000/svg" xmlns:xlink="http://www.w3.org/1999/xlink" viewBox="0 0 2751 371">
  <defs>
    <style>
      .cls-1 {
        fill: #112145;
      }

      .cls-1, .cls-2, .cls-3, .cls-4, .cls-5, .cls-6, .cls-7, .cls-8, .cls-9, .cls-10, .cls-11, .cls-12, .cls-13, .cls-14, .cls-15, .cls-16, .cls-17, .cls-18, .cls-19, .cls-20, .cls-21, .cls-22, .cls-23, .cls-24, .cls-25, .cls-26, .cls-27, .cls-28, .cls-29, .cls-30, .cls-31, .cls-32, .cls-33, .cls-34, .cls-35, .cls-36, .cls-37, .cls-38, .cls-39, .cls-40, .cls-41, .cls-42, .cls-43, .cls-44, .cls-45, .cls-46, .cls-47, .cls-48, .cls-49, .cls-50, .cls-51, .cls-52, .cls-53, .cls-54, .cls-55, .cls-56, .cls-57, .cls-58, .cls-59, .cls-60, .cls-61, .cls-62, .cls-63, .cls-64, .cls-65, .cls-66, .cls-67, .cls-68, .cls-69, .cls-70, .cls-71, .cls-72, .cls-73, .cls-74, .cls-75, .cls-76, .cls-77, .cls-78, .cls-79, .cls-80, .cls-81, .cls-82, .cls-83, .cls-84, .cls-85, .cls-86, .cls-87, .cls-88, .cls-89, .cls-90, .cls-91, .cls-92, .cls-93, .cls-94, .cls-95, .cls-96, .cls-97, .cls-98, .cls-99, .cls-100, .cls-101, .cls-102, .cls-103, .cls-104, .cls-105, .cls-106, .cls-107, .cls-108, .cls-109, .cls-110, .cls-111, .cls-112, .cls-113, .cls-114, .cls-115, .cls-116, .cls-117, .cls-118, .cls-119, .cls-120, .cls-121, .cls-122, .cls-123, .cls-124, .cls-125, .cls-126, .cls-127, .cls-128, .cls-129, .cls-130, .cls-131, .cls-132, .cls-133, .cls-134, .cls-135, .cls-136, .cls-137, .cls-138, .cls-139, .cls-140, .cls-141, .cls-142, .cls-143, .cls-144, .cls-145, .cls-146, .cls-147, .cls-148, .cls-149, .cls-150, .cls-151, .cls-152, .cls-153, .cls-154, .cls-155, .cls-156, .cls-157, .cls-158, .cls-159, .cls-160, .cls-161, .cls-162, .cls-163, .cls-164, .cls-165, .cls-166, .cls-167, .cls-168, .cls-169, .cls-170, .cls-171, .cls-172, .cls-173, .cls-174, .cls-175, .cls-176 {
        stroke-width: 0px;
      }

      .cls-2 {
        fill: #3274b2;
      }

      .cls-3 {
        fill: #162f57;
      }

      .cls-4 {
        fill: #3274b1;
      }

      .cls-5 {
        fill: #3377b6;
      }

      .cls-6 {
        fill: #48abf9;
      }

      .cls-7 {
        fill: #112247;
      }

      .cls-177 {
        clip-path: url(#clippath-11);
      }

      .cls-8 {
        fill: #112146;
      }

      .cls-9 {
        fill: #152a51;
      }

      .cls-10 {
        fill: #1b3965;
      }

      .cls-11 {
        fill: #3375b3;
      }

      .cls-12 {
        fill: #47a7f4;
      }

      .cls-13 {
        fill: #367ebe;
      }

      .cls-14 {
        fill: #2b639a;
      }

      .cls-15 {
        fill: #265589;
      }

      .cls-16 {
        fill: #419ae3;
      }

      .cls-17 {
        fill: #152b53;
      }

      .cls-18 {
        fill: #234e80;
      }

      .cls-19 {
        fill: #000;
      }

      .cls-20 {
        fill: #439de7;
      }

      .cls-21 {
        fill: #46a7f3;
      }

      .cls-22 {
        fill: #285c91;
      }

      .cls-23 {
        fill: #3d90d6;
      }

      .cls-24 {
        fill: #45a4f0;
      }

      .cls-25 {
        fill: #367ebf;
      }

      .cls-26 {
        fill: #3a88cc;
      }

      .cls-27 {
        fill: #152b52;
      }

      .cls-28 {
        fill: #306eaa;
      }

      .cls-29 {
        fill: #13254b;
      }

      .cls-30 {
        fill: #245183;
      }

      .cls-31 {
        fill: #193660;
      }

      .cls-32 {
        fill: #3986c9;
      }

      .cls-33 {
        fill: #2c649c;
      }

      .cls-34 {
        fill: #2e6aa5;
      }

      .cls-35 {
        fill: #2a5f95;
      }

      .cls-36 {
        fill: #1d406d;
      }

      .cls-37 {
        fill: #48aaf7;
      }

      .cls-38 {
        fill: #112044;
      }

      .cls-39 {
        fill: #4097df;
      }

      .cls-40 {
        fill: #101e42;
      }

      .cls-41 {
        fill: #377fc0;
      }

      .cls-178 {
        clip-path: url(#clippath-2);
      }

      .cls-42 {
        fill: #27588d;
      }

      .cls-43 {
        fill: #1d3f6c;
      }

      .cls-44 {
        fill: #44a1ec;
      }

      .cls-45 {
        fill: #101e41;
      }

      .cls-46 {
        fill: #204675;
      }

      .cls-47 {
        fill: #3d8fd5;
      }

      .cls-48 {
        fill: #3170ad;
      }

      .cls-49 {
        fill: #1a3964;
      }

      .cls-50 {
        fill: #26578b;
      }

      .cls-51 {
        fill: #214878;
      }

      .cls-52 {
        fill: #0f1d40;
      }

      .cls-53 {
        fill: #13274d;
      }

      .cls-54 {
        fill: #1e406e;
      }

      .cls-55 {
        fill: #2f6ca7;
      }

      .cls-179 {
        clip-path: url(#clippath-6);
      }

      .cls-56 {
        fill: #26568a;
      }

      .cls-57 {
        fill: #357bba;
      }

      .cls-58 {
        fill: #3f96dd;
      }

      .cls-59 {
        fill: #101f43;
      }

      .cls-60 {
        fill: #4096de;
      }

      .cls-61 {
        fill: #48acfa;
      }

      .cls-62 {
        fill: #49aefc;
      }

      .cls-63 {
        fill: #3c8ed3;
      }

      .cls-64 {
        fill: none;
      }

      .cls-65 {
        fill: #3e91d7;
      }

      .cls-66 {
        fill: #3a87ca;
      }

      .cls-67 {
        fill: #347ab9;
      }

      .cls-180 {
        clip-path: url(#clippath-7);
      }

      .cls-68 {
        fill: #173059;
      }

      .cls-69 {
        fill: #357bbb;
      }

      .cls-70 {
        fill: #3070ac;
      }

      .cls-71 {
        fill: #2f6da8;
      }

      .cls-72 {
        fill: #255487;
      }

      .cls-73 {
        fill: #19345e;
      }

      .cls-181 {
        clip-path: url(#clippath-1);
      }

      .cls-182 {
        clip-path: url(#clippath-4);
      }

      .cls-74 {
        fill: #2a5f96;
      }

      .cls-75 {
        fill: #142950;
      }

      .cls-76 {
        fill: #439ee8;
      }

      .cls-77 {
        fill: #1b3b67;
      }

      .cls-78 {
        fill: #255285;
      }

      .cls-79 {
        fill: #3273b0;
      }

      .cls-80 {
        fill: #152c54;
      }

      .cls-81 {
        fill: #44a1eb;
      }

      .cls-82 {
        fill: #3f93da;
      }

      .cls-83 {
        fill: #44a2ed;
      }

      .cls-84 {
        fill: #2d68a2;
      }

      .cls-85 {
        fill: #1f4574;
      }

      .cls-86 {
        fill: #224c7d;
      }

      .cls-87 {
        fill: #162d55;
      }

      .cls-88 {
        fill: #2f6da9;
      }

      .cls-89 {
        fill: #3b8bcf;
      }

      .cls-90 {
        fill: #46a5f1;
      }

      .cls-91 {
        fill: #14284f;
      }

      .cls-92 {
        fill: #1a3863;
      }

      .cls-93 {
        fill: #2b639b;
      }

      .cls-94 {
        fill: #44a0ea;
      }

      .cls-95 {
        fill: #439fe9;
      }

      .cls-96 {
        fill: #3479b8;
      }

      .cls-97 {
        fill: #4098e0;
      }

      .cls-98 {
        fill: #306fab;
      }

      .cls-99 {
        fill: #1a3762;
      }

      .cls-100 {
        fill: #3e93d9;
      }

      .cls-101 {
        fill: #27598e;
      }

      .cls-102 {
        fill: #295c92;
      }

      .cls-103 {
        fill: #224b7c;
      }

      .cls-104 {
        fill: #295e94;
      }

      .cls-105 {
        fill: #49aefd;
      }

      .cls-106 {
        fill: #0f1c3f;
      }

      .cls-107 {
        fill: #245184;
      }

      .cls-108 {
        fill: #27588c;
      }

      .cls-109 {
        fill: #46a6f2;
      }

      .cls-183 {
        clip-path: url(#clippath-9);
      }

      .cls-110 {
        fill: #1c3d69;
      }

      .cls-111 {
        fill: #162e56;
      }

      .cls-184 {
        clip-path: url(#clippath);
      }

      .cls-112 {
        fill: #47a9f6;
      }

      .cls-113 {
        fill: #122449;
      }

      .cls-114 {
        fill: #1a3661;
      }

      .cls-115 {
        fill: #2e69a4;
      }

      .cls-116 {
        fill: #3780c1;
      }

      .cls-117 {
        fill: #4ab0ff;
      }

      .cls-118 {
        fill: #3a88cb;
      }

      .cls-119 {
        fill: #3b8ace;
      }

      .cls-120 {
        fill: #3f95dc;
      }

      .cls-121 {
        fill: #3781c2;
      }

      .cls-122 {
        fill: #429be4;
      }

      .cls-185 {
        clip-path: url(#clippath-3);
      }

      .cls-123 {
        fill: #172f58;
      }

      .cls-124 {
        fill: #3172af;
      }

      .cls-125 {
        fill: #4aaffe;
      }

      .cls-126 {
        fill: #3f94db;
      }

      .cls-127 {
        fill: #234e7f;
      }

      .cls-128 {
        fill: #47a8f5;
      }

      .cls-129 {
        fill: #2b6299;
      }

      .cls-130 {
        fill: #18325c;
      }

      .cls-131 {
        fill: #295d93;
      }

      .cls-186 {
        clip-path: url(#clippath-8);
      }

      .cls-132 {
        fill: #285a8f;
      }

      .cls-133 {
        fill: #49adfb;
      }

      .cls-134 {
        fill: #45a3ee;
      }

      .cls-135 {
        fill: #265588;
      }

      .cls-136 {
        fill: #2a6198;
      }

      .cls-137 {
        fill: #234f81;
      }

      .cls-138 {
        fill: #3171ae;
      }

      .cls-139 {
        fill: #4199e1;
      }

      .cls-140 {
        fill: #1c3c68;
      }

      .cls-141 {
        fill: #45a4ef;
      }

      .cls-142 {
        fill: #3c8cd1;
      }

      .cls-143 {
        fill: #255386;
      }

      .cls-144 {
        fill: #3985c7;
      }

      .cls-145 {
        fill: #1f4473;
      }

      .cls-187 {
        clip-path: url(#clippath-5);
      }

      .cls-146 {
        fill: #419ae2;
      }

      .cls-147 {
        fill: #1d3e6b;
      }

      .cls-148 {
        fill: #285b90;
      }

      .cls-149 {
        fill: #224d7e;
      }

      .cls-150 {
        fill: #2f6ba6;
      }

      .cls-151 {
        fill: #3b8cd0;
      }

      .cls-152 {
        fill: #3882c4;
      }

      .cls-153 {
        fill: #3478b7;
      }

      .cls-154 {
        fill: #3985c8;
      }

      .cls-155 {
        fill: #3883c5;
      }

      .cls-156 {
        fill: #14284e;
      }

      .cls-157 {
        fill: #2c659d;
      }

      .cls-158 {
        fill: #3377b5;
      }

      .cls-159 {
        fill: #3884c6;
      }

      .cls-160 {
        fill: #1b3a66;
      }

      .cls-161 {
        fill: #1c3d6a;
      }

      .cls-188 {
        clip-path: url(#clippath-10);
      }

      .cls-162 {
        fill: #3b89cd;
      }

      .cls-163 {
        fill: #2c669e;
      }

      .cls-164 {
        fill: #13264c;
      }

      .cls-165 {
        fill: #48abf8;
      }

      .cls-166 {
        fill: #17315a;
      }

      .cls-167 {
        fill: #19355f;
      }

      .cls-168 {
        fill: #2e69a3;
      }

      .cls-169 {
        fill: #122348;
      }

      .cls-170 {
        fill: #18325b;
      }

      .cls-171 {
        fill: #204777;
      }

      .cls-172 {
        fill: #245082;
      }

      .cls-173 {
        fill: #204776;
      }

      .cls-174 {
        fill: #3d8fd4;
      }

      .cls-175 {
        fill: #3e92d8;
      }

      .cls-176 {
        fill: #3782c3;
      }
    </style>
    <clipPath id="clippath">
      <path class="cls-64" d="M918.23,270.83h-51.51v-138.54c0-14.96.65-31.49,1.94-49.57h-1.29c-2.69,14.21-5.11,24.44-7.27,30.68l-54.25,157.43h-42.63l-55.22-155.81c-1.51-4.2-3.93-14.96-7.27-32.29h-1.45c1.4,22.82,2.1,42.85,2.1,60.07v128.04h-46.99V39.28h76.37l47.31,137.25c3.77,10.98,6.52,22.02,8.23,33.1h.97c2.91-12.81,5.97-23.94,9.2-33.42l47.31-136.92h74.44v231.54Z"/>
    </clipPath>
    <clipPath id="clippath-1">
      <path class="cls-64" d="M1123.29,105.49l-67.17,178.58c-16.15,42.95-40.47,64.42-72.98,64.42-12.38,0-22.55-1.4-30.52-4.2v-40.69c6.78,3.98,14.15,5.97,22.12,5.97,13.14,0,22.28-6.19,27.45-18.57l8.72-20.51-67.17-165.02h56.51l30.84,100.59c1.94,6.24,3.45,13.62,4.52,22.12h.65c.97-6.24,2.74-13.51,5.33-21.8l31.16-100.92h50.54Z"/>
    </clipPath>
    <clipPath id="clippath-2">
      <path class="cls-64" d="M1148.8,270.83V39.28h82.02c82.24,0,123.36,37.62,123.36,112.86,0,36.06-11.23,64.86-33.66,86.38-22.45,21.53-52.34,32.29-89.7,32.29h-82.02ZM1200.95,81.75v146.77h25.83c22.61,0,40.34-6.78,53.2-20.34,12.87-13.56,19.3-32.03,19.3-55.38,0-22.06-6.38-39.43-19.13-52.08-12.77-12.64-30.66-18.97-53.69-18.97h-25.51Z"/>
    </clipPath>
    <clipPath id="clippath-3">
      <path class="cls-64" d="M1413.44,79.33c-8.61,0-15.66-2.55-21.15-7.67-5.49-5.11-8.23-11.38-8.23-18.81s2.74-13.89,8.23-18.73,12.54-7.27,21.15-7.27,15.8,2.42,21.23,7.27c5.44,4.84,8.16,11.09,8.16,18.73s-2.72,14.1-8.16,19.05c-5.43,4.96-12.51,7.43-21.23,7.43ZM1438.63,270.83h-51.02V105.49h51.02v165.34Z"/>
    </clipPath>
    <clipPath id="clippath-4">
      <path class="cls-64" d="M1643.69,251.93c0,30.68-8.88,54.43-26.64,71.28-17.76,16.85-43.49,25.27-77.18,25.27-22.28,0-39.94-3.18-52.96-9.53v-42.95c17.01,9.9,34.17,14.85,51.51,14.85s30.57-4.55,40.04-13.64c9.47-9.1,14.21-21.46,14.21-37.06v-13.08h-.65c-11.63,18.51-28.8,27.77-51.51,27.77-21.1,0-37.84-7.43-50.22-22.28-12.38-14.85-18.57-34.77-18.57-59.74,0-27.99,6.89-50.22,20.67-66.69,13.78-16.47,31.91-24.7,54.41-24.7,20.13,0,35.2,7.75,45.21,23.25h.65v-19.21h51.02v146.45ZM1593.32,191.39v-13.08c0-10.44-3.1-19.35-9.28-26.72-6.19-7.37-14.24-11.07-24.14-11.07-11.3,0-20.18,4.42-26.64,13.24s-9.69,21.27-9.69,37.3c0,13.78,3.07,24.68,9.2,32.69,6.14,8.03,14.53,12.03,25.19,12.03s19.08-4.06,25.59-12.19c6.52-8.13,9.77-18.86,9.77-32.22Z"/>
    </clipPath>
    <clipPath id="clippath-5">
      <path class="cls-64" d="M1712.16,79.33c-8.61,0-15.66-2.55-21.15-7.67-5.49-5.11-8.23-11.38-8.23-18.81s2.74-13.89,8.23-18.73,12.54-7.27,21.15-7.27,15.8,2.42,21.23,7.27c5.44,4.84,8.16,11.09,8.16,18.73s-2.72,14.1-8.16,19.05c-5.43,4.96-12.51,7.43-21.23,7.43ZM1737.34,270.83h-51.02V105.49h51.02v165.34Z"/>
    </clipPath>
    <clipPath id="clippath-6">
      <path class="cls-64" d="M1880.24,268.89c-7.53,3.98-18.89,5.97-34.07,5.97-35.95,0-53.93-18.67-53.93-56.03v-75.73h-26.8v-37.62h26.8v-35.68l50.86-14.53v50.22h37.14v37.62h-37.14v66.85c0,17.22,6.84,25.83,20.51,25.83,5.39,0,10.92-1.56,16.63-4.68v37.78Z"/>
    </clipPath>
    <clipPath id="clippath-7">
      <path class="cls-64" d="M2046.55,270.83h-48.28v-23.74h-.65c-11.08,18.51-27.51,27.77-49.25,27.77-16.04,0-28.66-4.55-37.87-13.65-9.19-9.09-13.8-21.23-13.8-36.41,0-32.07,19-50.6,57-55.54l44.89-5.97c0-18.08-9.79-27.13-29.39-27.13s-38.43,5.87-56.19,17.6v-38.43c7.1-3.66,16.82-6.89,29.14-9.69,12.33-2.8,23.56-4.2,33.67-4.2,47.15,0,70.72,23.53,70.72,70.56v98.82ZM1998.6,203.66v-11.14l-30.03,3.88c-16.57,2.16-24.87,9.64-24.87,22.44,0,5.81,2.01,10.58,6.06,14.29,4.03,3.72,9.5,5.58,16.38,5.58,9.58,0,17.38-3.31,23.41-9.93,6.03-6.63,9.04-14.99,9.04-25.11Z"/>
    </clipPath>
    <clipPath id="clippath-8">
      <path class="cls-64" d="M2137.94,270.83h-51.02V26.04h51.02v244.78Z"/>
    </clipPath>
    <clipPath id="clippath-9">
      <path class="cls-64" d="M2185.9,270.83V39.28h84.29c25.83,0,45.69,4.74,59.58,14.21,13.89,9.48,20.83,22.82,20.83,40.04,0,12.49-4.23,23.41-12.67,32.78-8.45,9.37-19.24,15.88-32.38,19.54v.65c16.47,2.05,29.62,8.13,39.48,18.25,9.84,10.12,14.77,22.44,14.77,36.98,0,21.21-7.59,38.03-22.77,50.45-15.18,12.44-35.9,18.65-62.16,18.65h-88.97ZM2238.05,77.71v54.9h22.93c10.76,0,19.24-2.6,25.43-7.83,6.19-5.22,9.29-12.4,9.29-21.56,0-17-12.7-25.51-38.11-25.51h-19.54ZM2238.05,171.36v61.03h28.26c12.05,0,21.5-2.79,28.34-8.4,6.83-5.59,10.25-13.24,10.25-22.93s-3.36-16.53-10.1-21.8c-6.72-5.27-16.12-7.91-28.17-7.91h-28.58Z"/>
    </clipPath>
    <clipPath id="clippath-10">
      <path class="cls-64" d="M2471.69,274.86c-27.55,0-49.22-7.72-64.99-23.17-15.77-15.44-23.65-36.42-23.65-62.9s8.18-48.73,24.54-64.19c16.37-15.44,38.49-23.17,66.36-23.17s48.98,7.72,64.59,23.17c15.61,15.45,23.41,35.88,23.41,61.28,0,27.45-8.04,49.14-24.14,65.07-16.09,15.93-38.12,23.9-66.12,23.9ZM2472.98,140.52c-12.05,0-21.42,4.15-28.1,12.43-6.68,8.29-10.01,20.02-10.01,35.2,0,31.76,12.81,47.63,38.43,47.63s36.65-16.31,36.65-48.92c0-30.89-12.33-46.34-36.98-46.34Z"/>
    </clipPath>
    <clipPath id="clippath-11">
      <path class="cls-64" d="M2695,268.89c-7.53,3.98-18.89,5.97-34.07,5.97-35.95,0-53.93-18.67-53.93-56.03v-75.73h-26.8v-37.62h26.8v-35.68l50.86-14.53v50.22h37.14v37.62h-37.14v66.85c0,17.22,6.84,25.83,20.51,25.83,5.39,0,10.92-1.56,16.63-4.68v37.78Z"/>
    </clipPath>
  </defs>
  <g>
    <path class="cls-117" d="M384.9,188.75c20.55-29.6,32.69-65.47,32.69-104.16,0-2.42-.14-4.81-.3-7.19l-.14-2.05-54.48,2.9.17,2.85c.09,1.16.18,2.32.18,3.5,0,70.91-57.69,128.61-128.6,128.61S105.82,155.5,105.82,84.59c0-1.11.1-2.2.17-3.29l.19-3.16-54.5-2.67-.14,2.15c-.15,2.31-.29,4.62-.29,6.98,0,101,82.17,183.17,183.17,183.17,39.51,0,76.04-12.71,106-34.07l66.12,29.21-21.65-74.14Z"/>
    <path class="cls-117" d="M173.49,98.62c10.39,0,19.79,4.18,26.67,10.91,7.09-6.93,11.52-16.58,11.52-27.28,0-21.09-17.1-38.19-38.19-38.19s-38.19,17.1-38.19,38.19c0,10.7,4.43,20.35,11.52,27.28,6.89-6.73,16.28-10.91,26.67-10.91Z"/>
    <path class="cls-117" d="M291.54,98.62c10.39,0,19.79,4.18,26.67,10.91,7.09-6.93,11.52-16.58,11.52-27.28,0-21.09-17.1-38.19-38.19-38.19s-38.19,17.1-38.19,38.19c0,10.7,4.43,20.35,11.52,27.28,6.89-6.73,16.28-10.91,26.67-10.91Z"/>
  </g>
  <g>
    <g>
      <path class="cls-19" d="M918.23,270.83h-51.51v-138.54c0-14.96.65-31.49,1.94-49.57h-1.29c-2.69,14.21-5.11,24.44-7.27,30.68l-54.25,157.43h-42.63l-55.22-155.81c-1.51-4.2-3.93-14.96-7.27-32.29h-1.45c1.4,22.82,2.1,42.85,2.1,60.07v128.04h-46.99V39.28h76.37l47.31,137.25c3.77,10.98,6.52,22.02,8.23,33.1h.97c2.91-12.81,5.97-23.94,9.2-33.42l47.31-136.92h74.44v231.54Z"/>
      <path class="cls-19" d="M1123.29,105.49l-67.17,178.58c-16.15,42.95-40.47,64.42-72.98,64.42-12.38,0-22.55-1.4-30.52-4.2v-40.69c6.78,3.98,14.15,5.97,22.12,5.97,13.14,0,22.28-6.19,27.45-18.57l8.72-20.51-67.17-165.02h56.51l30.84,100.59c1.94,6.24,3.45,13.62,4.52,22.12h.65c.97-6.24,2.74-13.51,5.33-21.8l31.16-100.92h50.54Z"/>
      <path class="cls-19" d="M1148.8,270.83V39.28h82.02c82.24,0,123.36,37.62,123.36,112.86,0,36.06-11.23,64.86-33.66,86.38-22.45,21.53-52.34,32.29-89.7,32.29h-82.02ZM1200.95,81.75v146.77h25.83c22.61,0,40.34-6.78,53.2-20.34,12.87-13.56,19.3-32.03,19.3-55.38,0-22.06-6.38-39.43-19.13-52.08-12.77-12.64-30.66-18.97-53.69-18.97h-25.51Z"/>
      <path class="cls-19" d="M1413.44,79.33c-8.61,0-15.66-2.55-21.15-7.67-5.49-5.11-8.23-11.38-8.23-18.81s2.74-13.89,8.23-18.73,12.54-7.27,21.15-7.27,15.8,2.42,21.23,7.27c5.44,4.84,8.16,11.09,8.16,18.73s-2.72,14.1-8.16,19.05c-5.43,4.96-12.51,7.43-21.23,7.43ZM1438.63,270.83h-51.02V105.49h51.02v165.34Z"/>
      <path class="cls-19" d="M1643.69,251.93c0,30.68-8.88,54.43-26.64,71.28-17.76,16.85-43.49,25.27-77.18,25.27-22.28,0-39.94-3.18-52.96-9.53v-42.95c17.01,9.9,34.17,14.85,51.51,14.85s30.57-4.55,40.04-13.64c9.47-9.1,14.21-21.46,14.21-37.06v-13.08h-.65c-11.63,18.51-28.8,27.77-51.51,27.77-21.1,0-37.84-7.43-50.22-22.28-12.38-14.85-18.57-34.77-18.57-59.74,0-27.99,6.89-50.22,20.67-66.69,13.78-16.47,31.91-24.7,54.41-24.7,20.13,0,35.2,7.75,45.21,23.25h.65v-19.21h51.02v146.45ZM1593.32,191.39v-13.08c0-10.44-3.1-19.35-9.28-26.72-6.19-7.37-14.24-11.07-24.14-11.07-11.3,0-20.18,4.42-26.64,13.24s-9.69,21.27-9.69,37.3c0,13.78,3.07,24.68,9.2,32.69,6.14,8.03,14.53,12.03,25.19,12.03s19.08-4.06,25.59-12.19c6.52-8.13,9.77-18.86,9.77-32.22Z"/>
      <path class="cls-19" d="M1712.16,79.33c-8.61,0-15.66-2.55-21.15-7.67-5.49-5.11-8.23-11.38-8.23-18.81s2.74-13.89,8.23-18.73,12.54-7.27,21.15-7.27,15.8,2.42,21.23,7.27c5.44,4.84,8.16,11.09,8.16,18.73s-2.72,14.1-8.16,19.05c-5.43,4.96-12.51,7.43-21.23,7.43ZM1737.34,270.83h-51.02V105.49h51.02v165.34Z"/>
      <path class="cls-19" d="M1880.24,268.89c-7.53,3.98-18.89,5.97-34.07,5.97-35.95,0-53.93-18.67-53.93-56.03v-75.73h-26.8v-37.62h26.8v-35.68l50.86-14.53v50.22h37.14v37.62h-37.14v66.85c0,17.22,6.84,25.83,20.51,25.83,5.39,0,10.92-1.56,16.63-4.68v37.78Z"/>
      <path class="cls-19" d="M2046.55,270.83h-48.28v-23.74h-.65c-11.08,18.51-27.51,27.77-49.25,27.77-16.04,0-28.66-4.55-37.87-13.65-9.19-9.09-13.8-21.23-13.8-36.41,0-32.07,19-50.6,57-55.54l44.89-5.97c0-18.08-9.79-27.13-29.39-27.13s-38.43,5.87-56.19,17.6v-38.43c7.1-3.66,16.82-6.89,29.14-9.69,12.33-2.8,23.56-4.2,33.67-4.2,47.15,0,70.72,23.53,70.72,70.56v98.82ZM1998.6,203.66v-11.14l-30.03,3.88c-16.57,2.16-24.87,9.64-24.87,22.44,0,5.81,2.01,10.58,6.06,14.29,4.03,3.72,9.5,5.58,16.38,5.58,9.58,0,17.38-3.31,23.41-9.93,6.03-6.63,9.04-14.99,9.04-25.11Z"/>
      <path class="cls-19" d="M2137.94,270.83h-51.02V26.04h51.02v244.78Z"/>
      <path class="cls-19" d="M2185.9,270.83V39.28h84.29c25.83,0,45.69,4.74,59.58,14.21,13.89,9.48,20.83,22.82,20.83,40.04,0,12.49-4.23,23.41-12.67,32.78-8.45,9.37-19.24,15.88-32.38,19.54v.65c16.47,2.05,29.62,8.13,39.48,18.25,9.84,10.12,14.77,22.44,14.77,36.98,0,21.21-7.59,38.03-22.77,50.45-15.18,12.44-35.9,18.65-62.16,18.65h-88.97ZM2238.05,77.71v54.9h22.93c10.76,0,19.24-2.6,25.43-7.83,6.19-5.22,9.29-12.4,9.29-21.56,0-17-12.7-25.51-38.11-25.51h-19.54ZM2238.05,171.36v61.03h28.26c12.05,0,21.5-2.79,28.34-8.4,6.83-5.59,10.25-13.24,10.25-22.93s-3.36-16.53-10.1-21.8c-6.72-5.27-16.12-7.91-28.17-7.91h-28.58Z"/>
      <path class="cls-19" d="M2471.69,274.86c-27.55,0-49.22-7.72-64.99-23.17-15.77-15.44-23.65-36.42-23.65-62.9s8.18-48.73,24.54-64.19c16.37-15.44,38.49-23.17,66.36-23.17s48.98,7.72,64.59,23.17c15.61,15.45,23.41,35.88,23.41,61.28,0,27.45-8.04,49.14-24.14,65.07-16.09,15.93-38.12,23.9-66.12,23.9ZM2472.98,140.52c-12.05,0-21.42,4.15-28.1,12.43-6.68,8.29-10.01,20.02-10.01,35.2,0,31.76,12.81,47.63,38.43,47.63s36.65-16.31,36.65-48.92c0-30.89-12.33-46.34-36.98-46.34Z"/>
      <path class="cls-19" d="M2695,268.89c-7.53,3.98-18.89,5.97-34.07,5.97-35.95,0-53.93-18.67-53.93-56.03v-75.73h-26.8v-37.62h26.8v-35.68l50.86-14.53v50.22h37.14v37.62h-37.14v66.85c0,17.22,6.84,25.83,20.51,25.83,5.39,0,10.92-1.56,16.63-4.68v37.78Z"/>
    </g>
    <g>
      <g class="cls-184">
        <rect class="cls-117" x="654.39" y="39.28" width="10.63" height="231.54"/>
        <rect class="cls-125" x="665.02" y="39.28" width="10.63" height="231.54"/>
        <rect class="cls-105" x="675.65" y="39.28" width="10.63" height="231.54"/>
        <rect class="cls-62" x="686.28" y="39.28" width="10.63" height="231.54"/>
        <rect class="cls-133" x="696.9" y="39.28" width="10.63" height="231.54"/>
        <rect class="cls-61" x="707.53" y="39.28" width="10.63" height="231.54"/>
        <rect class="cls-6" x="718.16" y="39.28" width="10.63" height="231.54"/>
        <rect class="cls-165" x="728.79" y="39.28" width="10.63" height="231.54"/>
        <rect class="cls-37" x="739.42" y="39.28" width="10.63" height="231.54"/>
        <rect class="cls-112" x="750.04" y="39.28" width="10.63" height="231.54"/>
        <rect class="cls-128" x="760.67" y="39.28" width="10.63" height="231.54"/>
        <rect class="cls-12" x="771.3" y="39.28" width="10.63" height="231.54"/>
        <rect class="cls-21" x="781.93" y="39.28" width="10.63" height="231.54"/>
        <rect class="cls-109" x="792.56" y="39.28" width="10.63" height="231.54"/>
        <rect class="cls-90" x="803.19" y="39.28" width="10.63" height="231.54"/>
        <rect class="cls-24" x="813.81" y="39.28" width="10.63" height="231.54"/>
        <rect class="cls-141" x="824.44" y="39.28" width="10.63" height="231.54"/>
        <rect class="cls-134" x="835.07" y="39.28" width="10.63" height="231.54"/>
        <rect class="cls-83" x="845.7" y="39.28" width="10.63" height="231.54"/>
        <rect class="cls-44" x="856.33" y="39.28" width="10.63" height="231.54"/>
        <rect class="cls-81" x="866.95" y="39.28" width="10.63" height="231.54"/>
        <rect class="cls-94" x="877.58" y="39.28" width="10.63" height="231.54"/>
        <rect class="cls-95" x="888.21" y="39.28" width="10.63" height="231.54"/>
        <rect class="cls-76" x="898.84" y="39.28" width="10.63" height="231.54"/>
        <rect class="cls-20" x="909.47" y="39.28" width="8.76" height="231.54"/>
      </g>
      <g class="cls-181">
        <rect class="cls-122" x="943.74" y="105.49" width="8.24" height="243.01"/>
        <rect class="cls-16" x="951.98" y="105.49" width="10.63" height="243.01"/>
        <rect class="cls-146" x="962.61" y="105.49" width="10.63" height="243.01"/>
        <rect class="cls-139" x="973.24" y="105.49" width="10.63" height="243.01"/>
        <rect class="cls-97" x="983.86" y="105.49" width="10.63" height="243.01"/>
        <rect class="cls-39" x="994.49" y="105.49" width="10.63" height="243.01"/>
        <rect class="cls-60" x="1005.12" y="105.49" width="10.63" height="243.01"/>
        <rect class="cls-58" x="1015.75" y="105.49" width="10.63" height="243.01"/>
        <rect class="cls-120" x="1026.38" y="105.49" width="10.63" height="243.01"/>
        <rect class="cls-126" x="1037.01" y="105.49" width="10.63" height="243.01"/>
        <rect class="cls-82" x="1047.63" y="105.49" width="10.63" height="243.01"/>
        <rect class="cls-100" x="1058.26" y="105.49" width="10.63" height="243.01"/>
        <rect class="cls-175" x="1068.89" y="105.49" width="10.63" height="243.01"/>
        <rect class="cls-65" x="1079.52" y="105.49" width="10.63" height="243.01"/>
        <rect class="cls-23" x="1090.15" y="105.49" width="10.63" height="243.01"/>
        <rect class="cls-47" x="1100.77" y="105.49" width="10.63" height="243.01"/>
        <rect class="cls-174" x="1111.4" y="105.49" width="10.63" height="243.01"/>
        <rect class="cls-63" x="1122.03" y="105.49" width="1.26" height="243.01"/>
      </g>
      <g class="cls-178">
        <rect class="cls-26" x="1200.95" y="81.75" width="6.1" height="146.77"/>
        <rect class="cls-118" x="1207.06" y="81.75" width="10.63" height="146.77"/>
        <rect class="cls-66" x="1217.68" y="81.75" width="10.63" height="146.77"/>
        <rect class="cls-32" x="1228.31" y="81.75" width="10.63" height="146.77"/>
        <rect class="cls-154" x="1238.94" y="81.75" width="10.63" height="146.77"/>
        <rect class="cls-144" x="1249.57" y="81.75" width="10.63" height="146.77"/>
        <rect class="cls-159" x="1260.2" y="81.75" width="10.63" height="146.77"/>
        <rect class="cls-155" x="1270.83" y="81.75" width="10.63" height="146.77"/>
        <rect class="cls-152" x="1281.45" y="81.75" width="10.63" height="146.77"/>
        <rect class="cls-176" x="1292.08" y="81.75" width="7.21" height="146.77"/>
        <rect class="cls-142" x="1148.8" y="39.28" width="5.11" height="231.54"/>
        <rect class="cls-151" x="1153.92" y="39.28" width="10.63" height="231.54"/>
        <rect class="cls-89" x="1164.54" y="39.28" width="10.63" height="231.54"/>
        <rect class="cls-119" x="1175.17" y="39.28" width="10.63" height="231.54"/>
        <rect class="cls-162" x="1185.8" y="39.28" width="10.63" height="231.54"/>
        <rect class="cls-26" x="1196.43" y="39.28" width="10.63" height="231.54"/>
        <rect class="cls-118" x="1207.06" y="39.28" width="10.63" height="231.54"/>
        <rect class="cls-66" x="1217.68" y="39.28" width="10.63" height="231.54"/>
        <rect class="cls-32" x="1228.31" y="39.28" width="10.63" height="231.54"/>
        <rect class="cls-154" x="1238.94" y="39.28" width="10.63" height="231.54"/>
        <rect class="cls-144" x="1249.57" y="39.28" width="10.63" height="231.54"/>
        <rect class="cls-159" x="1260.2" y="39.28" width="10.63" height="231.54"/>
        <rect class="cls-155" x="1270.83" y="39.28" width="10.63" height="231.54"/>
        <rect class="cls-152" x="1281.45" y="39.28" width="10.63" height="231.54"/>
        <rect class="cls-176" x="1292.08" y="39.28" width="10.63" height="231.54"/>
        <rect class="cls-121" x="1302.71" y="39.28" width="10.63" height="231.54"/>
        <rect class="cls-116" x="1313.34" y="39.28" width="10.63" height="231.54"/>
        <rect class="cls-41" x="1323.97" y="39.28" width="10.63" height="231.54"/>
        <rect class="cls-25" x="1334.59" y="39.28" width="10.63" height="231.54"/>
        <rect class="cls-13" x="1345.22" y="39.28" width="8.96" height="231.54"/>
      </g>
      <g class="cls-185">
        <rect class="cls-69" x="1387.61" y="105.49" width=".13" height="165.34"/>
        <rect class="cls-57" x="1387.74" y="105.49" width="10.63" height="165.34"/>
        <rect class="cls-67" x="1398.36" y="105.49" width="10.63" height="165.34"/>
        <rect class="cls-96" x="1408.99" y="105.49" width="10.63" height="165.34"/>
        <rect class="cls-153" x="1419.62" y="105.49" width="10.63" height="165.34"/>
        <rect class="cls-5" x="1430.25" y="105.49" width="8.38" height="165.34"/>
        <rect class="cls-69" x="1384.06" y="26.85" width="3.68" height="52.48"/>
        <rect class="cls-57" x="1387.74" y="26.85" width="10.63" height="52.48"/>
        <rect class="cls-67" x="1398.36" y="26.85" width="10.63" height="52.48"/>
        <rect class="cls-96" x="1408.99" y="26.85" width="10.63" height="52.48"/>
        <rect class="cls-153" x="1419.62" y="26.85" width="10.63" height="52.48"/>
        <rect class="cls-5" x="1430.25" y="26.85" width="10.63" height="52.48"/>
        <rect class="cls-158" x="1440.88" y="26.85" width="1.95" height="52.48"/>
      </g>
      <g class="cls-182">
        <rect class="cls-138" x="1523.56" y="140.52" width="2.34" height="95.26"/>
        <rect class="cls-48" x="1525.9" y="140.52" width="10.63" height="95.26"/>
        <rect class="cls-70" x="1536.53" y="140.52" width="10.63" height="95.26"/>
        <rect class="cls-98" x="1547.16" y="140.52" width="10.63" height="95.26"/>
        <rect class="cls-28" x="1557.79" y="140.52" width="10.63" height="95.26"/>
        <rect class="cls-88" x="1568.41" y="140.52" width="10.63" height="95.26"/>
        <rect class="cls-71" x="1579.04" y="140.52" width="10.63" height="95.26"/>
        <rect class="cls-55" x="1589.67" y="140.52" width="3.65" height="95.26"/>
        <rect class="cls-11" x="1471.73" y="101.45" width="1.03" height="247.04"/>
        <rect class="cls-2" x="1472.76" y="101.45" width="10.63" height="247.04"/>
        <rect class="cls-4" x="1483.39" y="101.45" width="10.63" height="247.04"/>
        <rect class="cls-79" x="1494.02" y="101.45" width="10.63" height="247.04"/>
        <rect class="cls-124" x="1504.65" y="101.45" width="10.63" height="247.04"/>
        <rect class="cls-138" x="1515.27" y="101.45" width="10.63" height="247.04"/>
        <rect class="cls-48" x="1525.9" y="101.45" width="10.63" height="247.04"/>
        <rect class="cls-70" x="1536.53" y="101.45" width="10.63" height="247.04"/>
        <rect class="cls-98" x="1547.16" y="101.45" width="10.63" height="247.04"/>
        <rect class="cls-28" x="1557.79" y="101.45" width="10.63" height="247.04"/>
        <rect class="cls-88" x="1568.41" y="101.45" width="10.63" height="247.04"/>
        <rect class="cls-71" x="1579.04" y="101.45" width="10.63" height="247.04"/>
        <rect class="cls-55" x="1589.67" y="101.45" width="10.63" height="247.04"/>
        <rect class="cls-150" x="1600.3" y="101.45" width="10.63" height="247.04"/>
        <rect class="cls-34" x="1610.93" y="101.45" width="10.63" height="247.04"/>
        <rect class="cls-115" x="1621.55" y="101.45" width="10.63" height="247.04"/>
        <rect class="cls-168" x="1632.18" y="101.45" width="10.63" height="247.04"/>
        <rect class="cls-84" x="1642.81" y="101.45" width=".88" height="247.04"/>
      </g>
      <g class="cls-187">
        <rect class="cls-157" x="1686.32" y="105.49" width="9.63" height="165.34"/>
        <rect class="cls-33" x="1695.95" y="105.49" width="10.63" height="165.34"/>
        <rect class="cls-93" x="1706.58" y="105.49" width="10.63" height="165.34"/>
        <rect class="cls-14" x="1717.21" y="105.49" width="10.63" height="165.34"/>
        <rect class="cls-129" x="1727.84" y="105.49" width="9.51" height="165.34"/>
        <rect class="cls-163" x="1682.77" y="26.85" width="2.55" height="52.48"/>
        <rect class="cls-157" x="1685.32" y="26.85" width="10.63" height="52.48"/>
        <rect class="cls-33" x="1695.95" y="26.85" width="10.63" height="52.48"/>
        <rect class="cls-93" x="1706.58" y="26.85" width="10.63" height="52.48"/>
        <rect class="cls-14" x="1717.21" y="26.85" width="10.63" height="52.48"/>
        <rect class="cls-129" x="1727.84" y="26.85" width="10.63" height="52.48"/>
        <rect class="cls-136" x="1738.46" y="26.85" width="3.08" height="52.48"/>
      </g>
      <g class="cls-179">
        <rect class="cls-74" x="1765.44" y="55.27" width="4.91" height="219.59"/>
        <rect class="cls-35" x="1770.35" y="55.27" width="10.63" height="219.59"/>
        <rect class="cls-104" x="1780.98" y="55.27" width="10.63" height="219.59"/>
        <rect class="cls-131" x="1791.61" y="55.27" width="10.63" height="219.59"/>
        <rect class="cls-102" x="1802.23" y="55.27" width="10.63" height="219.59"/>
        <rect class="cls-22" x="1812.86" y="55.27" width="10.63" height="219.59"/>
        <rect class="cls-148" x="1823.49" y="55.27" width="10.63" height="219.59"/>
        <rect class="cls-132" x="1834.12" y="55.27" width="10.63" height="219.59"/>
        <rect class="cls-101" x="1844.75" y="55.27" width="10.63" height="219.59"/>
        <rect class="cls-42" x="1855.37" y="55.27" width="10.63" height="219.59"/>
        <rect class="cls-108" x="1866" y="55.27" width="10.63" height="219.59"/>
        <rect class="cls-50" x="1876.63" y="55.27" width="3.61" height="219.59"/>
      </g>
      <g class="cls-180">
        <rect class="cls-78" x="1943.7" y="192.52" width="7.33" height="46.18"/>
        <rect class="cls-107" x="1951.03" y="192.52" width="10.63" height="46.18"/>
        <rect class="cls-30" x="1961.66" y="192.52" width="10.63" height="46.18"/>
        <rect class="cls-172" x="1972.28" y="192.52" width="10.63" height="46.18"/>
        <rect class="cls-137" x="1982.91" y="192.52" width="10.63" height="46.18"/>
        <rect class="cls-18" x="1993.54" y="192.52" width="5.06" height="46.18"/>
        <rect class="cls-56" x="1896.71" y="101.45" width="1.18" height="173.41"/>
        <rect class="cls-15" x="1897.89" y="101.45" width="10.63" height="173.41"/>
        <rect class="cls-135" x="1908.52" y="101.45" width="10.63" height="173.41"/>
        <rect class="cls-72" x="1919.14" y="101.45" width="10.63" height="173.41"/>
        <rect class="cls-143" x="1929.77" y="101.45" width="10.63" height="173.41"/>
        <rect class="cls-78" x="1940.4" y="101.45" width="10.63" height="173.41"/>
        <rect class="cls-107" x="1951.03" y="101.45" width="10.63" height="173.41"/>
        <rect class="cls-30" x="1961.66" y="101.45" width="10.63" height="173.41"/>
        <rect class="cls-172" x="1972.28" y="101.45" width="10.63" height="173.41"/>
        <rect class="cls-137" x="1982.91" y="101.45" width="10.63" height="173.41"/>
        <rect class="cls-18" x="1993.54" y="101.45" width="10.63" height="173.41"/>
        <rect class="cls-127" x="2004.17" y="101.45" width="10.63" height="173.41"/>
        <rect class="cls-149" x="2014.8" y="101.45" width="10.63" height="173.41"/>
        <rect class="cls-86" x="2025.43" y="101.45" width="10.63" height="173.41"/>
        <rect class="cls-103" x="2036.05" y="101.45" width="10.5" height="173.41"/>
      </g>
      <g class="cls-186">
        <rect class="cls-51" x="2086.92" y="26.04" width="2.28" height="244.78"/>
        <rect class="cls-171" x="2089.19" y="26.04" width="10.63" height="244.78"/>
        <rect class="cls-173" x="2099.82" y="26.04" width="10.63" height="244.78"/>
        <rect class="cls-46" x="2110.45" y="26.04" width="10.63" height="244.78"/>
        <rect class="cls-85" x="2121.08" y="26.04" width="10.63" height="244.78"/>
        <rect class="cls-145" x="2131.71" y="26.04" width="6.23" height="244.78"/>
      </g>
      <g class="cls-183">
        <rect class="cls-110" x="2238.05" y="171.36" width="10.57" height="61.03"/>
        <rect class="cls-140" x="2248.62" y="171.36" width="10.63" height="61.03"/>
        <rect class="cls-77" x="2259.25" y="171.36" width="10.63" height="61.03"/>
        <rect class="cls-160" x="2269.87" y="171.36" width="10.63" height="61.03"/>
        <rect class="cls-10" x="2280.5" y="171.36" width="10.63" height="61.03"/>
        <rect class="cls-49" x="2291.13" y="171.36" width="10.63" height="61.03"/>
        <rect class="cls-92" x="2301.76" y="171.36" width="3.14" height="61.03"/>
        <rect class="cls-110" x="2238.05" y="77.71" width="10.57" height="54.9"/>
        <rect class="cls-140" x="2248.62" y="77.71" width="10.63" height="54.9"/>
        <rect class="cls-77" x="2259.25" y="77.71" width="10.63" height="54.9"/>
        <rect class="cls-160" x="2269.87" y="77.71" width="10.63" height="54.9"/>
        <rect class="cls-10" x="2280.5" y="77.71" width="10.63" height="54.9"/>
        <rect class="cls-49" x="2291.13" y="77.71" width="4.56" height="54.9"/>
        <rect class="cls-54" x="2185.9" y="39.28" width="9.58" height="231.54"/>
        <rect class="cls-36" x="2195.48" y="39.28" width="10.63" height="231.54"/>
        <rect class="cls-43" x="2206.1" y="39.28" width="10.63" height="231.54"/>
        <rect class="cls-147" x="2216.73" y="39.28" width="10.63" height="231.54"/>
        <rect class="cls-161" x="2227.36" y="39.28" width="10.63" height="231.54"/>
        <rect class="cls-110" x="2237.99" y="39.28" width="10.63" height="231.54"/>
        <rect class="cls-140" x="2248.62" y="39.28" width="10.63" height="231.54"/>
        <rect class="cls-77" x="2259.25" y="39.28" width="10.63" height="231.54"/>
        <rect class="cls-160" x="2269.87" y="39.28" width="10.63" height="231.54"/>
        <rect class="cls-10" x="2280.5" y="39.28" width="10.63" height="231.54"/>
        <rect class="cls-49" x="2291.13" y="39.28" width="10.63" height="231.54"/>
        <rect class="cls-92" x="2301.76" y="39.28" width="10.63" height="231.54"/>
        <rect class="cls-99" x="2312.39" y="39.28" width="10.63" height="231.54"/>
        <rect class="cls-114" x="2323.01" y="39.28" width="10.63" height="231.54"/>
        <rect class="cls-31" x="2333.64" y="39.28" width="10.63" height="231.54"/>
        <rect class="cls-167" x="2344.27" y="39.28" width="10.63" height="231.54"/>
        <rect class="cls-73" x="2354.9" y="39.28" width="4.9" height="231.54"/>
      </g>
      <g class="cls-188">
        <rect class="cls-3" x="2434.88" y="140.52" width="5.05" height="95.26"/>
        <rect class="cls-111" x="2439.92" y="140.52" width="10.63" height="95.26"/>
        <rect class="cls-87" x="2450.55" y="140.52" width="10.63" height="95.26"/>
        <rect class="cls-80" x="2461.18" y="140.52" width="10.63" height="95.26"/>
        <rect class="cls-17" x="2471.81" y="140.52" width="10.63" height="95.26"/>
        <rect class="cls-27" x="2482.44" y="140.52" width="10.63" height="95.26"/>
        <rect class="cls-9" x="2493.06" y="140.52" width="10.63" height="95.26"/>
        <rect class="cls-75" x="2503.69" y="140.52" width="6.27" height="95.26"/>
        <rect class="cls-130" x="2383.05" y="101.45" width="3.74" height="173.41"/>
        <rect class="cls-170" x="2386.78" y="101.45" width="10.63" height="173.41"/>
        <rect class="cls-166" x="2397.41" y="101.45" width="10.63" height="173.41"/>
        <rect class="cls-68" x="2408.04" y="101.45" width="10.63" height="173.41"/>
        <rect class="cls-123" x="2418.67" y="101.45" width="10.63" height="173.41"/>
        <rect class="cls-3" x="2429.3" y="101.45" width="10.63" height="173.41"/>
        <rect class="cls-111" x="2439.92" y="101.45" width="10.63" height="173.41"/>
        <rect class="cls-87" x="2450.55" y="101.45" width="10.63" height="173.41"/>
        <rect class="cls-80" x="2461.18" y="101.45" width="10.63" height="173.41"/>
        <rect class="cls-17" x="2471.81" y="101.45" width="10.63" height="173.41"/>
        <rect class="cls-27" x="2482.44" y="101.45" width="10.63" height="173.41"/>
        <rect class="cls-9" x="2493.06" y="101.45" width="10.63" height="173.41"/>
        <rect class="cls-75" x="2503.69" y="101.45" width="10.63" height="173.41"/>
        <rect class="cls-91" x="2514.32" y="101.45" width="10.63" height="173.41"/>
        <rect class="cls-156" x="2524.95" y="101.45" width="10.63" height="173.41"/>
        <rect class="cls-53" x="2535.58" y="101.45" width="10.63" height="173.41"/>
        <rect class="cls-164" x="2546.21" y="101.45" width="10.63" height="173.41"/>
        <rect class="cls-29" x="2556.83" y="101.45" width="5.12" height="173.41"/>
      </g>
      <g class="cls-177">
        <rect class="cls-113" x="2580.2" y="55.27" width="8.52" height="219.59"/>
        <rect class="cls-169" x="2588.72" y="55.27" width="10.63" height="219.59"/>
        <rect class="cls-7" x="2599.35" y="55.27" width="10.63" height="219.59"/>
        <rect class="cls-8" x="2609.97" y="55.27" width="10.63" height="219.59"/>
        <rect class="cls-1" x="2620.6" y="55.27" width="10.63" height="219.59"/>
        <rect class="cls-38" x="2631.23" y="55.27" width="10.63" height="219.59"/>
        <rect class="cls-59" x="2641.86" y="55.27" width="10.63" height="219.59"/>
        <rect class="cls-40" x="2652.49" y="55.27" width="10.63" height="219.59"/>
        <rect class="cls-45" x="2663.12" y="55.27" width="10.63" height="219.59"/>
        <rect class="cls-52" x="2673.74" y="55.27" width="10.63" height="219.59"/>
        <rect class="cls-106" x="2684.37" y="55.27" width="10.63" height="219.59"/>
      </g>
    </g>
  </g>
</svg>